<?xml version="1.0" standalone="no"?>
<!DOCTYPE svg PUBLIC "-//W3C//DTD SVG 20010904//EN"
 "http://www.w3.org/TR/2001/REC-SVG-20010904/DTD/svg10.dtd">
<svg version="1.0" xmlns="http://www.w3.org/2000/svg"
 width="1082.000000pt" height="230.000000pt" viewBox="0 0 1082.000000 230.000000"
 preserveAspectRatio="xMidYMid meet">

<g transform="translate(0.000000,230.000000) scale(0.100000,-0.100000)"
fill="#000000" stroke="none">
<path d="M2472 2290 c-314 -44 -477 -223 -512 -561 -13 -131 -13 -1006 0
-1140 6 -57 18 -133 26 -169 52 -211 195 -355 404 -404 101 -24 365 -22 464 4
248 63 376 227 416 534 7 53 10 283 8 656 -4 558 -4 577 -26 655 -62 224 -187
351 -399 406 -90 23 -283 33 -381 19z m293 -317 c55 -29 109 -88 137 -148 l23
-50 3 -592 c2 -510 0 -602 -13 -660 -40 -171 -144 -251 -314 -241 -90 6 -141
28 -194 87 -44 48 -66 90 -83 156 -20 74 -20 1202 0 1267 27 92 92 160 185
195 55 20 205 12 256 -14z"/>
<path d="M7145 2286 c-269 -45 -419 -187 -477 -449 -18 -83 -21 -140 -25 -557
-7 -665 8 -836 87 -996 67 -137 186 -227 351 -268 98 -24 361 -22 461 3 241
62 366 208 415 488 15 85 17 171 17 658 0 538 0 564 -21 659 -55 249 -182 388
-412 447 -99 26 -289 33 -396 15z m323 -321 c62 -33 117 -103 138 -172 18 -60
21 -1181 3 -1265 -22 -101 -76 -179 -154 -221 -33 -18 -56 -22 -140 -22 -84 0
-107 4 -140 22 -81 44 -146 140 -166 247 -6 34 -9 273 -7 638 l3 583 23 50
c36 79 104 141 182 166 14 5 66 7 115 6 78 -2 97 -7 143 -32z"/>
<path d="M10 1140 l0 -1110 178 2 177 3 5 910 5 910 176 -910 176 -910 175 -3
175 -2 25 132 c14 73 92 487 174 920 l149 787 3 -919 2 -920 178 2 177 3 3
1108 2 1107 -314 0 -314 0 -5 -22 c-3 -13 -60 -384 -128 -825 -68 -442 -126
-803 -129 -803 -3 0 -36 224 -74 498 -37 273 -91 630 -118 792 -27 162 -52
310 -55 328 l-6 32 -318 0 -319 0 0 -1110z"/>
<path d="M3420 1140 l0 -1110 175 0 175 0 1 838 c0 512 4 829 9 817 8 -17 420
-1638 420 -1651 0 -2 115 -4 255 -4 l255 0 0 1110 0 1110 -180 0 -180 0 0
-837 c0 -460 -2 -834 -4 -832 -2 2 -102 371 -221 819 -118 448 -218 823 -221
833 -5 16 -25 17 -245 17 l-239 0 0 -1110z"/>
<path d="M4890 1140 l0 -1110 180 0 180 0 0 1110 0 1110 -180 0 -180 0 0
-1110z"/>
<path d="M5340 2110 l0 -140 200 0 200 0 2 -967 3 -968 180 0 180 0 3 968 2
967 240 0 240 0 0 140 0 140 -625 0 -625 0 0 -140z"/>
<path d="M8130 1140 l0 -1110 178 2 177 3 3 520 2 520 133 -3 c148 -3 277 -21
330 -47 74 -35 71 -16 77 -530 l5 -460 178 -3 178 -2 -3 438 -3 437 -33 67
c-39 80 -98 136 -193 181 -37 17 -68 35 -68 38 -1 4 16 9 37 13 60 10 154 60
194 104 59 65 63 92 63 412 0 273 -1 287 -22 325 -60 112 -183 169 -415 194
-54 6 -259 11 -458 11 l-360 0 0 -1110z m662 831 c117 -7 153 -12 180 -28 56
-33 59 -45 56 -295 l-3 -228 -25 -25 c-36 -35 -104 -45 -321 -45 l-189 0 0
315 0 315 78 -1 c42 0 143 -4 224 -8z"/>
<path d="M9470 2241 c0 -4 110 -329 245 -720 l245 -712 0 -390 0 -389 175 0
175 0 0 398 0 398 253 710 253 709 -179 3 c-99 1 -181 1 -183 -1 -2 -2 -75
-239 -161 -526 -88 -295 -160 -517 -164 -509 -4 7 -62 207 -128 443 -67 237
-133 467 -147 513 l-25 82 -180 0 c-98 0 -179 -4 -179 -9z"/>
</g>
</svg>
